# xmcd
#
# Track frame offsets:
#	150
#	13212
#	27350
#	42107
#	55497
#	69470
#	81265
#	96567
#	107720
#	117892
#	131615
#	143615
#	157505
#	168365
#	182735
#	195380
#	208067
#	224685
#	234502
#	250112
#	262355
#	277817
#
# Disc length: 3861 seconds
#
# Revision: 1
# Processed by: cddbd v1.5.1PL0 Copyright (c) Steve Scherf et al.
# Submitted via: CDex 1.50Beta5
#
DISCID=3f0f1316
DTITLE=水原弘 - 中村八大作品集〜上を向いて歩こう〜 Disc 2
DYEAR=1999
DGENRE=Pop
TTITLE0=坂本スミ子/夢であいましょう
TTITLE1=坂本九/上を向いて歩こう
TTITLE2=ピーナッツ/幸福のシッポ
TTITLE3=弘田三枝子/ブルージン・ブルース
TTITLE4=森山加代子/青空を抱きしめよう
TTITLE5=水原弘/風に歌おう
TTITLE6=ジェリー藤尾/遠くへ行きたい
TTITLE7=田辺靖雄/いつもの小道で
TTITLE8=西田佐知子/故郷のように
TTITLE9=越路吹雪/芽生えて、そして
TTITLE10=デューク・エイセス/おさななじみ
TTITLE11=松尾和子/涙にしてみれば
TTITLE12=梓みちよ/こんにちは赤ちゃん
TTITLE13=九重佑三子/ウェディング・ドレス
TTITLE14=田辺靖雄/パララン・パン
TTITLE15=和田弘/目を閉じて
TTITLE16=益田喜頓/娘よ
TTITLE17=ジャニーズ/若い涙
TTITLE18=北島三郎/帰ろかな
TTITLE19=城山吉之助/モンキー・ボン・ダンス
TTITLE20=坂本九/坊や
TTITLE21=中村八大クインテット/夢であいましょう
EXTD=
EXTT0=
EXTT1=
EXTT2=
EXTT3=
EXTT4=
EXTT5=
EXTT6=
EXTT7=
EXTT8=
EXTT9=
EXTT10=
EXTT11=
EXTT12=
EXTT13=
EXTT14=
EXTT15=
EXTT16=
EXTT17=
EXTT18=
EXTT19=
EXTT20=
EXTT21=
PLAYORDER=
